<mxfile host="app.diagrams.net" modified="2023-05-12T18:19:19.798Z" agent="Mozilla/5.0 (Windows NT 10.0; Win64; x64) AppleWebKit/537.36 (KHTML, like Gecko) Chrome/113.0.0.0 Safari/537.36" version="21.2.9" etag="52NAz6O9c3qV4Y8w7hYB" type="github">
  <diagram name="Page-1" id="X8r1YjEAae7aFVVwq4m7">
    <mxGraphModel>
      <root>
        <mxCell id="0" />
        <mxCell id="1" parent="0" />
      </root>
    </mxGraphModel>
  </diagram>
</mxfile>
